<svg width="16" height="81" viewBox="0 0 16 81" fill="none" xmlns="http://www.w3.org/2000/svg">
<path d="M8.7071 0.292892C8.31658 -0.0976334 7.68341 -0.0976333 7.29289 0.292892L0.928929 6.65685C0.538405 7.04738 0.538405 7.68054 0.928929 8.07107C1.31945 8.46159 1.95262 8.46159 2.34314 8.07107L8 2.41422L13.6569 8.07107C14.0474 8.46159 14.6805 8.46159 15.0711 8.07107C15.4616 7.68054 15.4616 7.04738 15.0711 6.65685L8.7071 0.292892ZM9 81L9 79L7 79L7 81L9 81ZM9 75L9 71L7 71L7 75L9 75ZM9 67L9 63L7 63L7 67L9 67ZM9 59L9 55L7 55L7 59L9 59ZM9 51L9 47L7 47L7 51L9 51ZM9 43L9 39L7 39L7 43L9 43ZM9 35L9 31L7 31L7 35L9 35ZM9 27L9 23L7 23L7 27L9 27ZM9 19L9 15L7 15L7 19L9 19ZM9 11L9 7L7 7L7 11L9 11ZM9 3L9 1L7 1L7 3L9 3ZM8.7071 0.292892C8.31658 -0.0976334 7.68341 -0.0976333 7.29289 0.292892L0.928929 6.65685C0.538405 7.04738 0.538405 7.68054 0.928929 8.07107C1.31945 8.46159 1.95262 8.46159 2.34314 8.07107L8 2.41422L13.6569 8.07107C14.0474 8.46159 14.6805 8.46159 15.0711 8.07107C15.4616 7.68054 15.4616 7.04738 15.0711 6.65685L8.7071 0.292892ZM9 81L9 79L7 79L7 81L9 81ZM9 75L9 71L7 71L7 75L9 75ZM9 67L9 63L7 63L7 67L9 67ZM9 59L9 55L7 55L7 59L9 59ZM9 51L9 47L7 47L7 51L9 51ZM9 43L9 39L7 39L7 43L9 43ZM9 35L9 31L7 31L7 35L9 35ZM9 27L9 23L7 23L7 27L9 27ZM9 19L9 15L7 15L7 19L9 19ZM9 11L9 7L7 7L7 11L9 11ZM9 3L9 1L7 1L7 3L9 3Z" fill="#FAD107"/>
</svg>
