<svg width="61" height="61" viewBox="0 0 61 61" fill="none" xmlns="http://www.w3.org/2000/svg">
<path d="M54.7333 52.0168L44.4157 41.723C48.0571 37.3877 49.8843 31.8139 49.5161 26.1642C49.1479 20.5145 46.6128 15.225 42.4395 11.399C38.2662 7.57296 32.7769 5.50578 27.1165 5.62859C21.4561 5.7514 16.0617 8.05471 12.0583 12.0581C8.05483 16.0616 5.75152 21.456 5.62871 27.1164C5.5059 32.7768 7.57308 38.2661 11.3991 42.4394C15.2251 46.6127 20.5146 49.1478 26.1643 49.516C31.8141 49.8842 37.3878 48.057 41.7231 44.4156L52.0169 54.7332C52.3813 55.0855 52.8683 55.2824 53.3751 55.2824C53.8819 55.2824 54.3689 55.0855 54.7333 54.7332C55.0913 54.3718 55.2921 53.8836 55.2921 53.375C55.2921 52.8663 55.0913 52.3782 54.7333 52.0168ZM9.53134 27.6406C9.53134 24.0589 10.5934 20.5576 12.5833 17.5796C14.5732 14.6015 17.4015 12.2804 20.7106 10.9097C24.0196 9.53906 27.6608 9.18043 31.1737 9.87919C34.6866 10.5779 37.9133 12.3027 40.446 14.8353C42.9786 17.368 44.7034 20.5948 45.4021 24.1076C46.1009 27.6205 45.7423 31.2617 44.3716 34.5708C43.0009 37.8798 40.6798 40.7081 37.7017 42.698C34.7237 44.6879 31.2224 45.75 27.6407 45.75C22.8398 45.7437 18.2372 43.8337 14.8424 40.4389C11.4476 37.0441 9.53765 32.4416 9.53134 27.6406Z" fill="#19BEFA"/>
<path d="M24 33L18 27L24 21L25.425 22.425L20.825 27.025L25.4 31.6L24 33ZM32 33L30.575 31.575L35.175 26.975L30.6 22.4L32 21L38 27L32 33Z" fill="#19BEFA"/>
</svg>
