<svg width="61" height="61" viewBox="0 0 61 61" fill="none" xmlns="http://www.w3.org/2000/svg">
<path d="M54.7333 52.0168L44.4157 41.723C48.0571 37.3877 49.8843 31.8139 49.5161 26.1642C49.1479 20.5145 46.6128 15.225 42.4395 11.399C38.2662 7.57296 32.7769 5.50578 27.1165 5.62859C21.4561 5.7514 16.0617 8.05471 12.0583 12.0581C8.05483 16.0616 5.75152 21.456 5.62871 27.1164C5.5059 32.7768 7.57308 38.2661 11.3991 42.4394C15.2251 46.6127 20.5146 49.1478 26.1643 49.516C31.8141 49.8842 37.3878 48.057 41.7231 44.4156L52.0169 54.7332C52.3813 55.0855 52.8683 55.2824 53.3751 55.2824C53.8819 55.2824 54.3689 55.0855 54.7333 54.7332C55.0913 54.3718 55.2921 53.8836 55.2921 53.375C55.2921 52.8663 55.0913 52.3782 54.7333 52.0168ZM9.53134 27.6406C9.53134 24.0589 10.5934 20.5576 12.5833 17.5796C14.5732 14.6015 17.4015 12.2804 20.7106 10.9097C24.0196 9.53906 27.6608 9.18043 31.1737 9.87919C34.6866 10.5779 37.9133 12.3027 40.446 14.8353C42.9786 17.368 44.7034 20.5948 45.4021 24.1076C46.1009 27.6205 45.7423 31.2617 44.3716 34.5708C43.0009 37.8798 40.6798 40.7081 37.7017 42.698C34.7237 44.6879 31.2224 45.75 27.6407 45.75C22.8398 45.7437 18.2372 43.8337 14.8424 40.4389C11.4476 37.0441 9.53765 32.4416 9.53134 27.6406Z" fill="#19BEFA"/>
<path fill-rule="evenodd" clip-rule="evenodd" d="M18 27C18 29.6522 19.0536 32.1957 20.9289 34.0711C22.8043 35.9464 25.3478 37 28 37C30.6522 37 33.1957 35.9464 35.0711 34.0711C36.9464 32.1957 38 29.6522 38 27C38 24.3478 36.9464 21.8043 35.0711 19.9289C33.1957 18.0536 30.6522 17 28 17C25.3478 17 22.8043 18.0536 20.9289 19.9289C19.0536 21.8043 18 24.3478 18 27ZM36.2857 27C36.2857 29.1975 35.4128 31.305 33.8589 32.8589C32.305 34.4128 30.1975 35.2857 28 35.2857C25.8025 35.2857 23.695 34.4128 22.1411 32.8589C20.5872 31.305 19.7143 29.1975 19.7143 27C19.7143 24.8025 20.5872 22.695 22.1411 21.1411C23.695 19.5872 25.8025 18.7143 28 18.7143C30.1975 18.7143 32.305 19.5872 33.8589 21.1411C35.4128 22.695 36.2857 24.8025 36.2857 27Z" fill="#19BEFA"/>
<path fill-rule="evenodd" clip-rule="evenodd" d="M23.7144 27.0001C23.7144 32.1681 25.4184 36.4287 28.0001 36.4287C30.5818 36.4287 32.2858 32.1681 32.2858 27.0001C32.2858 21.8321 30.5818 17.5715 28.0001 17.5715C25.4184 17.5715 23.7144 21.8321 23.7144 27.0001ZM30.5715 27.0001C30.5715 31.2995 29.2058 34.7144 28.0001 34.7144C26.7944 34.7144 25.4286 31.2995 25.4286 27.0001C25.4286 22.7007 26.7944 19.2858 28.0001 19.2858C29.2058 19.2858 30.5715 22.7007 30.5715 27.0001Z" fill="#19BEFA"/>
<path d="M20.6879 21.8194L21.8376 20.5486C21.9519 20.6514 22.0764 20.7543 22.209 20.8537C23.6616 21.9417 25.9804 22.6137 28.5119 22.6137C30.673 22.6137 32.6856 22.1257 34.1473 21.2903C34.4993 21.0892 34.8124 20.8709 35.0833 20.6389L36.1964 21.9429C35.8245 22.2583 35.4235 22.5377 34.9987 22.7772C33.2661 23.7692 30.9599 24.3269 28.5119 24.3269C25.6296 24.3269 22.9519 23.552 21.1804 22.2252C21.0101 22.0976 20.8457 21.9622 20.6879 21.8194ZM20.6879 32.1989L21.8376 33.4697C21.9519 33.3657 22.0764 33.264 22.209 33.1646C23.6616 32.0766 25.9804 31.4046 28.5119 31.4046C30.673 31.4046 32.6856 31.8926 34.1473 32.728C34.4993 32.9292 34.8124 33.1474 35.0833 33.3794L36.1964 32.0754C35.8241 31.7606 35.4231 31.4813 34.9987 31.2412C33.2661 30.2492 30.9599 29.6914 28.5119 29.6914C25.6296 29.6914 22.9519 30.4663 21.1804 31.7932C21.0101 31.9208 20.8457 32.0561 20.6879 32.1989ZM18.5713 27.8572V26.1429H37.4284V27.8572H18.5713Z" fill="#19BEFA"/>
</svg>
